<mxfile host="65bd71144e">
    <diagram id="jRwN7Vbw0A8Gw_FqFBKk" name="Page-1">
        <mxGraphModel dx="1570" dy="395" grid="1" gridSize="10" guides="1" tooltips="1" connect="1" arrows="1" fold="1" page="1" pageScale="1" pageWidth="850" pageHeight="1100" math="0" shadow="0">
            <root>
                <mxCell id="0"/>
                <mxCell id="1" parent="0"/>
                <mxCell id="3" value="SearchContext.jsx" style="swimlane;fontStyle=0;childLayout=stackLayout;horizontal=1;startSize=30;horizontalStack=0;resizeParent=1;resizeParentMax=0;resizeLast=0;collapsible=1;marginBottom=0;whiteSpace=wrap;html=1;" vertex="1" parent="1">
                    <mxGeometry y="160" width="320" height="150" as="geometry"/>
                </mxCell>
                <mxCell id="4" value="&lt;div style=&quot;text-align: center; color: rgb(59, 59, 59); background-color: rgb(13, 13, 13); font-family: Consolas, &amp;quot;Courier New&amp;quot;, monospace; font-size: 14px; line-height: 19px;&quot;&gt;&lt;span style=&quot;color: #f22c3d;&quot;&gt;&lt;b&gt;setSearchTerm&lt;/b&gt;&lt;/span&gt;&lt;/div&gt;&lt;div style=&quot;color: rgb(59, 59, 59); background-color: rgb(13, 13, 13); font-family: Consolas, &amp;quot;Courier New&amp;quot;, monospace; font-size: 14px; line-height: 19px;&quot;&gt;&lt;div style=&quot;line-height: 19px;&quot;&gt;&lt;div&gt;&lt;span style=&quot;color: #ffffff;&quot;&gt;&amp;lt;&lt;/span&gt;&lt;span style=&quot;color: #fff9f9;&quot;&gt;SearchContext.Provider&lt;/span&gt;&lt;span style=&quot;color: #ffffff;&quot;&gt; &lt;/span&gt;&lt;span style=&quot;color: #dd3078;font-style: italic;&quot;&gt;value&lt;/span&gt;&lt;span style=&quot;color: #ffffff;&quot;&gt;=&lt;/span&gt;&lt;span style=&quot;color: #2e94d2;&quot;&gt;{&lt;/span&gt;&lt;span style=&quot;color: #ffffff;&quot;&gt;{ &lt;/span&gt;&lt;span style=&quot;color: #ffffff;&quot;&gt;searchTerm&lt;/span&gt;&lt;span style=&quot;color: #ffffff;&quot;&gt;, &lt;/span&gt;&lt;span style=&quot;color: #f22c3d;&quot;&gt;setSearchTerm&lt;/span&gt;&lt;span style=&quot;color: #ffffff;&quot;&gt; }&lt;/span&gt;&lt;span style=&quot;color: #2e94d2;&quot;&gt;}&lt;/span&gt;&lt;span style=&quot;color: #ffffff;&quot;&gt;&amp;gt;&lt;/span&gt;&lt;/div&gt;&lt;div&gt;&lt;span style=&quot;color: #ffffff;&quot;&gt;&amp;nbsp; &amp;nbsp; &amp;nbsp; &lt;/span&gt;&lt;span style=&quot;color: #2e94d2;&quot;&gt;{&lt;/span&gt;&lt;span style=&quot;color: #ffffff;font-style: italic;&quot;&gt;children&lt;/span&gt;&lt;span style=&quot;color: #2e94d2;&quot;&gt;}&lt;/span&gt;&lt;/div&gt;&lt;div&gt;&lt;span style=&quot;color: #ffffff;&quot;&gt;&amp;nbsp; &amp;nbsp; &amp;lt;/&lt;/span&gt;&lt;span style=&quot;color: #fff9f9;&quot;&gt;SearchContext.Provider&lt;/span&gt;&lt;span style=&quot;color: #ffffff;&quot;&gt;&amp;gt;&lt;/span&gt;&lt;/div&gt;&lt;/div&gt;&lt;/div&gt;" style="text;strokeColor=none;fillColor=none;align=left;verticalAlign=middle;spacingLeft=4;spacingRight=4;overflow=hidden;points=[[0,0.5],[1,0.5]];portConstraint=eastwest;rotatable=0;whiteSpace=wrap;html=1;" vertex="1" parent="3">
                    <mxGeometry y="30" width="320" height="80" as="geometry"/>
                </mxCell>
                <mxCell id="32" value="" style="shape=table;html=1;whiteSpace=wrap;startSize=0;container=1;collapsible=0;childLayout=tableLayout;" vertex="1" parent="3">
                    <mxGeometry y="110" width="320" height="40" as="geometry"/>
                </mxCell>
                <mxCell id="33" value="" style="shape=tableRow;horizontal=0;startSize=0;swimlaneHead=0;swimlaneBody=0;top=0;left=0;bottom=0;right=0;collapsible=0;dropTarget=0;fillColor=none;points=[[0,0.5],[1,0.5]];portConstraint=eastwest;" vertex="1" parent="32">
                    <mxGeometry width="320" height="40" as="geometry"/>
                </mxCell>
                <mxCell id="34" value="&lt;span style=&quot;color: rgb(255, 255, 255); font-family: Consolas, &amp;quot;Courier New&amp;quot;, monospace; font-size: 14px; text-align: left; background-color: rgb(13, 13, 13);&quot;&gt;searchTerm&lt;/span&gt;" style="shape=partialRectangle;html=1;whiteSpace=wrap;connectable=0;fillColor=none;top=0;left=0;bottom=0;right=0;overflow=hidden;" vertex="1" parent="33">
                    <mxGeometry width="161" height="40" as="geometry">
                        <mxRectangle width="161" height="40" as="alternateBounds"/>
                    </mxGeometry>
                </mxCell>
                <mxCell id="35" value="&lt;span style=&quot;border-color: rgb(0, 0, 0); font-family: Consolas, &amp;quot;Courier New&amp;quot;, monospace; font-size: 14px; font-style: normal; font-variant-ligatures: normal; font-variant-caps: normal; font-weight: 400; letter-spacing: normal; orphans: 2; text-align: left; text-indent: 0px; text-transform: none; widows: 2; word-spacing: 0px; -webkit-text-stroke-width: 0px; background-color: rgb(13, 13, 13); text-decoration-thickness: initial; text-decoration-style: initial; text-decoration-color: initial; color: rgb(242, 44, 61);&quot;&gt;setSearchTerm&lt;/span&gt;&lt;span style=&quot;border-color: rgb(0, 0, 0); font-family: Consolas, &amp;quot;Courier New&amp;quot;, monospace; font-size: 14px; font-style: normal; font-variant-ligatures: normal; font-variant-caps: normal; font-weight: 400; letter-spacing: normal; orphans: 2; text-align: left; text-indent: 0px; text-transform: none; widows: 2; word-spacing: 0px; -webkit-text-stroke-width: 0px; background-color: rgb(13, 13, 13); text-decoration-thickness: initial; text-decoration-style: initial; text-decoration-color: initial; color: rgb(255, 255, 255);&quot;&gt;&lt;span&gt;&amp;nbsp;&lt;/span&gt;&lt;/span&gt;&lt;br&gt;" style="shape=partialRectangle;html=1;whiteSpace=wrap;connectable=0;fillColor=none;top=0;left=0;bottom=0;right=0;overflow=hidden;verticalAlign=middle;" vertex="1" parent="33">
                    <mxGeometry x="161" width="159" height="40" as="geometry">
                        <mxRectangle width="159" height="40" as="alternateBounds"/>
                    </mxGeometry>
                </mxCell>
                <mxCell id="15" value="Header.jsx" style="swimlane;fontStyle=0;childLayout=stackLayout;horizontal=1;startSize=30;horizontalStack=0;resizeParent=1;resizeParentMax=0;resizeLast=0;collapsible=1;marginBottom=0;whiteSpace=wrap;html=1;" vertex="1" parent="1">
                    <mxGeometry x="200" y="400" width="250" height="100" as="geometry"/>
                </mxCell>
                <mxCell id="16" value="&lt;div style=&quot;text-align: center; color: rgb(59, 59, 59); background-color: rgb(13, 13, 13); font-family: Consolas, &amp;quot;Courier New&amp;quot;, monospace; font-size: 14px; line-height: 19px;&quot;&gt;&lt;span style=&quot;color: rgb(255, 255, 255);&quot;&gt;&lt;b&gt;setSearchTerm&lt;/b&gt;&lt;/span&gt;&lt;span style=&quot;color: #ffffff;&quot;&gt;&lt;br&gt;&lt;/span&gt;&lt;/div&gt;&lt;div style=&quot;color: rgb(59, 59, 59); background-color: rgb(13, 13, 13); font-family: Consolas, &amp;quot;Courier New&amp;quot;, monospace; font-size: 14px; line-height: 19px;&quot;&gt;&lt;span style=&quot;color: #ffffff;&quot;&gt;&amp;lt;&lt;/span&gt;&lt;span style=&quot;color: #fff9f9;&quot;&gt;SearchInput&lt;/span&gt;&lt;span style=&quot;color: #ffffff;&quot;&gt; &lt;/span&gt;&lt;span style=&quot;color: #dd3078;font-style: italic;&quot;&gt;onSearch&lt;/span&gt;&lt;span style=&quot;color: #ffffff;&quot;&gt;=&lt;/span&gt;&lt;span style=&quot;color: #2e94d2;&quot;&gt;{&lt;/span&gt;&lt;span style=&quot;color: #ffffff;&quot;&gt;&lt;u&gt;setSearchTerm&lt;/u&gt;&lt;/span&gt;&lt;span style=&quot;color: #2e94d2;&quot;&gt;}&lt;/span&gt;&lt;span style=&quot;color: #ffffff;&quot;&gt; &lt;/span&gt;&lt;span style=&quot;color: #ffffff;&quot;&gt;/&amp;gt;&lt;/span&gt;&lt;/div&gt;" style="text;strokeColor=none;fillColor=none;align=left;verticalAlign=middle;spacingLeft=4;spacingRight=4;overflow=hidden;points=[[0,0.5],[1,0.5]];portConstraint=eastwest;rotatable=0;whiteSpace=wrap;html=1;" vertex="1" parent="15">
                    <mxGeometry y="30" width="250" height="70" as="geometry"/>
                </mxCell>
                <mxCell id="46" value="Iš 'SearchInput' paima ieškomą tekstą, kad užpildytų 'SearchTerm'" style="endArrow=classic;html=1;exitX=0.732;exitY=1.05;exitDx=0;exitDy=0;exitPerimeter=0;entryX=0.502;entryY=-0.006;entryDx=0;entryDy=0;entryPerimeter=0;" edge="1" parent="1">
                    <mxGeometry x="-0.0056" y="1" width="50" height="50" relative="1" as="geometry">
                        <mxPoint x="232.24" y="312" as="sourcePoint"/>
                        <mxPoint x="323.5" y="429.58000000000004" as="targetPoint"/>
                        <mxPoint as="offset"/>
                    </mxGeometry>
                </mxCell>
                <mxCell id="52" value="PaginatedListingsFetch.jsx" style="swimlane;fontStyle=0;childLayout=stackLayout;horizontal=1;startSize=30;horizontalStack=0;resizeParent=1;resizeParentMax=0;resizeLast=0;collapsible=1;marginBottom=0;whiteSpace=wrap;html=1;" vertex="1" parent="1">
                    <mxGeometry x="-170" y="400" width="250" height="180" as="geometry"/>
                </mxCell>
                <mxCell id="53" value="&lt;div style=&quot;color: rgb(59, 59, 59); background-color: rgb(13, 13, 13); font-family: Consolas, &amp;quot;Courier New&amp;quot;, monospace; font-size: 14px; line-height: 19px;&quot;&gt;&lt;div style=&quot;line-height: 19px;&quot;&gt;&lt;span style=&quot;color: #ffffff;&quot;&gt;searchTerm&lt;/span&gt;&lt;/div&gt;&lt;div style=&quot;line-height: 19px;&quot;&gt;&lt;div style=&quot;line-height: 19px;&quot;&gt;&lt;div&gt;&amp;nbsp; &amp;nbsp; &lt;span style=&quot;color: #2e95d3;&quot;&gt;const&lt;/span&gt; &lt;span style=&quot;color: #ffffff;&quot;&gt;params&lt;/span&gt; &lt;span style=&quot;color: #ffffff;&quot;&gt;=&lt;/span&gt; {&lt;/div&gt;&lt;div&gt;&amp;nbsp; &amp;nbsp; &amp;nbsp; &lt;span style=&quot;color: #ffffff;&quot;&gt;page&lt;/span&gt;&lt;span style=&quot;color: #ffffff;&quot;&gt;:&lt;/span&gt; &lt;span style=&quot;color: #ffffff;font-style: italic;&quot;&gt;currentPage&lt;/span&gt;,&lt;/div&gt;&lt;div&gt;...&lt;/div&gt;&lt;div&gt;&amp;nbsp; &amp;nbsp; &amp;nbsp; &lt;u&gt;&lt;span style=&quot;color: #ffffff;&quot;&gt;...&lt;/span&gt;(&lt;span style=&quot;color: #ffffff;&quot;&gt;searchTerm&lt;/span&gt; &lt;span style=&quot;color: #ffffff;&quot;&gt;&amp;amp;&amp;amp;&lt;/span&gt; { &lt;span style=&quot;color: #ffffff;&quot;&gt;search&lt;/span&gt;&lt;span style=&quot;color: #ffffff;&quot;&gt;:&lt;/span&gt; &lt;span style=&quot;color: #ffffff;&quot;&gt;searchTerm&lt;/span&gt; })&lt;/u&gt;, &lt;span style=&quot;color: #868686;font-style: italic;&quot;&gt;//&lt;/span&gt;&lt;span style=&quot;color: #a0a0a0;font-style: italic;&quot;&gt; Add search term if it exists&lt;/span&gt;&lt;/div&gt;&lt;div&gt;&amp;nbsp; &amp;nbsp; }&lt;span style=&quot;color: #ffffff;&quot;&gt;;&lt;/span&gt;&lt;/div&gt;&lt;/div&gt;&lt;/div&gt;&lt;/div&gt;" style="text;strokeColor=none;fillColor=none;align=center;verticalAlign=bottom;spacingLeft=4;spacingRight=4;overflow=hidden;points=[[0,0.5],[1,0.5]];portConstraint=eastwest;rotatable=0;whiteSpace=wrap;html=1;horizontal=1;" vertex="1" parent="52">
                    <mxGeometry y="30" width="250" height="150" as="geometry"/>
                </mxCell>
                <mxCell id="54" value="" style="endArrow=classic;html=1;fontSize=6;exitX=0.256;exitY=1.05;exitDx=0;exitDy=0;exitPerimeter=0;entryX=0.509;entryY=-0.003;entryDx=0;entryDy=0;entryPerimeter=0;" edge="1" parent="1" source="33" target="53">
                    <mxGeometry width="50" height="50" relative="1" as="geometry">
                        <mxPoint x="90" y="470" as="sourcePoint"/>
                        <mxPoint x="140" y="420" as="targetPoint"/>
                    </mxGeometry>
                </mxCell>
                <mxCell id="56" value="Įrašo į URL ieškomą tekstą" style="edgeLabel;html=1;align=center;verticalAlign=middle;resizable=0;points=[];fontSize=9;rotation=-15;" vertex="1" connectable="0" parent="54">
                    <mxGeometry x="-0.3205" relative="1" as="geometry">
                        <mxPoint y="2" as="offset"/>
                    </mxGeometry>
                </mxCell>
            </root>
        </mxGraphModel>
    </diagram>
</mxfile>